<?xml version="1.0" encoding="UTF-8"?>
<svg id="Layer_1" xmlns="http://www.w3.org/2000/svg" version="1.1" viewBox="0 0 500 500">
  <!-- Generator: Adobe Illustrator 29.0.1, SVG Export Plug-In . SVG Version: 2.1.0 Build 192)  -->
  <defs>
    <style>
      .st0 {
        fill: #e52561;
      }

      .st1 {
        fill: #fff;
      }

      .st2 {
        fill: #020102;
      }
    </style>
  </defs>
  <path class="st0" d="M250.6,45.8c-80.4,0-145.6,65.2-145.6,145.6v145.6h145.6c80.4,0,145.6-65.2,145.6-145.6S331,45.8,250.6,45.8Z"/>
  <path class="st2" d="M32.4,454.2c-2,0-3.9-.7-5.3-2.2-1.4-1.4-2.2-3.2-2.2-5.3v-62.9c0-2,.7-3.8,2.1-5.3,1.4-1.5,3.2-2.2,5.3-2.2h20.8c8.4,0,15.6,1.9,21.5,5.7,5.9,3.7,10.4,8.7,13.4,14.6,2.9,5.9,4.4,12.2,4.4,18.6s-1.5,12.8-4.4,18.6c-3,6-7.5,10.9-13.4,14.6-5.9,3.8-13.2,5.7-21.5,5.7h-20.8ZM52.1,439.9c5.2,0,9.8-1.1,13.6-3.1,3.9-2.1,6.8-4.9,8.9-8.6,2.1-3.7,3.2-8,3.2-12.9s-1.1-9.2-3.2-12.9c-2.1-3.7-5-6.5-8.9-8.6-3.9-2.1-8.4-3.1-13.6-3.1h-12.2v49.2h12.2Z"/>
  <path class="st2" d="M176.4,454.2c-2,0-3.9-.7-5.3-2.2-1.4-1.4-2.2-3.2-2.2-5.3v-44.5c0-2,.7-3.8,2.1-5.3,1.4-1.5,3.2-2.2,5.3-2.2s4,.7,5.4,2.2c1.4,1.4,2.2,3.3,2.2,5.4v44.5c0,2.1-.8,3.9-2.2,5.3-1.4,1.4-3.3,2.1-5.3,2.1ZM176.2,390c-2.2,0-4.1-.8-5.7-2.4-1.5-1.5-2.4-3.5-2.4-5.7v-.4c0-2.2.8-4.1,2.4-5.7s3.5-2.4,5.7-2.4h.6c2.2,0,4.1.8,5.7,2.4,1.5,1.5,2.4,3.5,2.4,5.7v.4c0,2.2-.8,4.1-2.4,5.7-1.5,1.5-3.5,2.4-5.7,2.4h-.6Z"/>
  <path class="st2" d="M148.3,394.3c-2,0-3.8.7-5.3,2.1-1.5,1.4-2.2,3.2-2.2,5.3v.5c0,0,0,.1,0,.2v27.6c0,6.9-6,10-11.6,10s-11.3-3-11.3-9.9v-28.4c0-2-.7-3.9-2.2-5.3-1.4-1.4-3.2-2.2-5.3-2.2s-3.8.7-5.3,2.1c-1.5,1.4-2.2,3.2-2.2,5.3v29.4c0,4.1.8,8,2.5,11.4,1.7,3.6,4.2,6.4,7.4,8.5,3.2,2.1,7.1,3.1,11.4,3.1s8.6-.7,11.5-3.4c2.3-2.1,3.5-4.8,4.2-4.8.6,0,.8.4.8.8.2,2.3.7,3.9,2.2,5.3,1.4,1.4,3.2,2.2,5.3,2.2s3.8-.7,5.3-2.1c1.5-1.4,2.2-3.2,2.2-5.3v-17.7s0,0,0,0v-27.3c0-2-.7-3.9-2.2-5.3-1.4-1.4-3.2-2.2-5.3-2.2Z"/>
  <path class="st0" d="M300,454.2c-1.6,0-3-.4-4.4-1.1-1.3-.7-2.4-1.6-3.3-2.8h0c0,0-35.1-49-35.1-49v45.5c0,2.1-.8,3.9-2.2,5.3-1.4,1.4-3.3,2.1-5.3,2.1s-3.9-.7-5.3-2.2c-1.4-1.4-2.2-3.2-2.2-5.3v-60.1c0-2.6.9-4.9,2.8-6.7,1.8-1.9,4.1-2.9,6.7-2.9h1.3c2.1,0,5.2.7,7.9,4.2h0c0,0,34.9,46.9,34.9,46.9v-43.5c0-2,.7-3.8,2.1-5.3,1.4-1.5,3.2-2.2,5.3-2.2s3.9.8,5.3,2.2c1.4,1.4,2.2,3.3,2.2,5.3v60.1c0,2.6-1,4.9-2.9,6.7-1.9,1.8-4.1,2.8-6.7,2.8h-1.2Z"/>
  <path class="st0" d="M449.9,454.2c-2.1,0-4-.6-5.7-1.8-1.6-1.1-2.8-2.7-3.5-4.5h0c0-.1-8.8-26.2-8.8-26.2l-8.8,26.2h0c-.7,1.9-1.9,3.4-3.5,4.5-1.7,1.2-3.6,1.8-5.7,1.8s-4-.6-5.7-1.8c-1.6-1.2-2.8-2.7-3.4-4.4l-15.5-43.1c-.3-.9-.5-1.8-.5-2.7,0-2,.8-3.9,2.3-5.3,1.5-1.4,3.4-2.2,5.5-2.2s3.1.4,4.4,1.2c1.4.9,2.4,2,2.9,3.5l10,31.4,9.9-30.4c.6-1.7,1.6-3,3.1-4.1,1.5-1,3.2-1.6,5.1-1.6s3.6.5,5.1,1.6c1.5,1,2.5,2.4,3.1,4.1l9.9,30.4,10-31.4c.5-1.4,1.5-2.6,2.9-3.5,1.3-.8,2.8-1.2,4.4-1.2s4.1.7,5.5,2.2c1.5,1.4,2.3,3.2,2.3,5.3s-.2,1.7-.5,2.6l-15.5,43.1c-.6,1.8-1.8,3.3-3.4,4.4-1.7,1.2-3.6,1.8-5.7,1.8Z"/>
  <path class="st2" d="M218.2,454.2c-11.5,0-17.9-5.8-17.9-16.4v-29.4s-.6,0-.6,0c-1.9,0-3.6-.7-4.9-2-1.2-1.3-1.9-2.9-1.9-4.8s.7-3.6,1.9-4.8c1.3-1.3,3-1.9,4.9-1.9h.6v-7.7c0-2.1.8-4,2.2-5.4,1.4-1.4,3.2-2.1,5.2-2.1s3.9.7,5.3,2.1c1.4,1.4,2.1,3.2,2.1,5.3v1.9s0,.2,0,.2v5.5h9c1.9,0,3.6.7,4.8,1.9,1.3,1.3,1.9,3,1.9,4.9s-.7,3.5-1.9,4.8c-1.3,1.3-3,2-4.9,2h-9v28.6c0,2.2,1.4,4.5,3.2,4.6,2.1.1,8-.2,9.6.7,1.4.7,2.8,2.6,2.8,4.6,0,2.6-1.4,4.8-3.9,6.1h0s0,0,0,0c-3,1.4-5.3,1.2-8.8,1.2Z"/>
  <path class="st1" d="M250.6,110.8c-44.5,0-80.6,36.1-80.6,80.6v80.6h80.6c44.5,0,80.6-36.1,80.6-80.6s-36.1-80.6-80.6-80.6ZM250.6,227.4h-36v-36c0-19.9,16.1-36,36-36s36,16.1,36,36-16.1,36-36,36Z"/>
  <path class="st0" d="M353.3,392.9c-16.9,0-30.6,13.7-30.6,30.6s13.7,30.6,30.6,30.6,30.6-13.7,30.6-30.6-13.7-30.6-30.6-30.6ZM353.3,440c-9.1,0-16.5-7.4-16.5-16.5s7.4-16.5,16.5-16.5,16.5,7.4,16.5,16.5-7.4,16.5-16.5,16.5Z"/>
</svg>